Patient4_TMGait_0pt3_03_right_02_GRF.mot
version=1
nRows=39
nColumns=19
inDegrees=no
endheader
time	F1x	F1y	F1z	M1x	M1y	M1z	F2x	F2y	F2z	M2x	M2y	M2z	EC1x	EC1y	EC1z	EC2x	EC2y	EC2z
3.6	4.1936	723.541	62.4419	-230.4398	-63.1612	756.3723	-0.74972	19.8747	-1.7577	7.7292	2.8379	15.7067	-0.0592	0.0182	-0.0073	-0.0462	0.0165	0.9585
3.619	0.47421	743.6951	65.0378	-236.9709	-66.3989	775.9941	-1.0578	15.7041	-1.4068	6.097	2.363	12.7464	-0.0592	0.0182	-0.0073	-0.0462	0.0165	0.9585
3.638	-3.3139	769.8633	68.0357	-245.42	-69.97	801.3639	-1.1374	11.6203	-0.99684	4.4941	1.7872	9.783	-0.0592	0.0182	-0.0073	-0.0462	0.0165	0.9585
3.657	-6.8236	801.3107	71.3017	-255.5535	-73.6422	831.6087	-1.0023	8.0759	-0.59673	3.099	1.1908	7.165	-0.0592	0.0182	-0.0073	-0.0462	0.0165	0.9585
3.676	-9.7094	836.4089	74.6718	-266.8588	-77.1563	864.9407	-0.76568	5.3227	-0.2575	2.0132	0.66295	5.1051	-0.0592	0.0182	-0.0073	-0.0462	0.0165	0.9585
3.695	-11.6414	872.5579	77.9634	-278.5087	-80.2418	898.6259	-0.50981	3.3667	0.002653	1.2424	0.24582	3.6188	-0.0592	0.0182	-0.0073	-0.0462	0.0165	0.9585
3.714	-12.3864	906.2025	80.9841	-289.3596	-82.6501	929.0516	-0.28153	2.0664	0.18994	0.73392	-0.057726	2.5943	-0.0592	0.0182	-0.0073	-0.0462	0.0165	0.9585
3.733	-11.8983	933.1605	83.5107	-298.0611	-84.1655	952.0939	-0.09887	1.2028	0.32307	0.40472	-0.2715	1.8493	-0.0592	0.0182	-0.0073	-0.0462	0.0165	0.9585
3.752	-10.3041	949.3602	85.2941	-303.3029	-84.6096	963.8465	0.045176	0.52092	0.42756	0.15807	-0.43672	1.1623	-0.0592	0.0182	-0.0073	-0.0462	0.0165	0.9585
3.771	-7.8218	951.7537	86.082	-304.1099	-83.8355	961.4661	0.17106	-0.23376	0.53112	-0.10345	-0.59914	0.30555	-0.0592	0.0182	-0.0073	-0.0462	0.0165	0.9585
3.79	-4.6515	939.0417	85.6743	-300.081	-81.7405	943.8365	0.30101	-1.2876	0.65767	-0.46655	-0.79618	-0.93219	-0.0592	0.0182	-0.0073	-0.0462	0.0165	0.9585
3.809	-0.91168	911.951	83.9884	-291.4751	-78.3067	911.8193	0.45195	-2.8084	0.82053	-0.99514	-1.0478	-2.7094	-0.0592	0.0182	-0.0073	-0.0462	0.0165	0.9585
3.828	3.3629	873.0607	81.1011	-279.1453	-73.6377	868.0572	0.63422	-4.8667	1.0143	-1.7177	-1.3475	-5.0887	-0.0592	0.0182	-0.0073	-0.0462	0.0165	0.9585
3.847	8.1825	826.3446	77.2541	-264.3844	-67.9694	816.5136	0.84778	-7.3789	1.2111	-2.6069	-1.6609	-7.9666	-0.0592	0.0182	-0.0073	-0.0462	0.0165	0.9585
3.866	13.5636	776.5746	72.8126	-248.7346	-61.6385	761.8802	1.073	-10.0332	1.3549	-3.5555	-1.9179	-10.9878	-0.0592	0.0182	-0.0073	-0.0462	0.0165	0.9585
3.885	19.5004	728.6676	68.1968	-233.7756	-55.0257	708.9435	1.2614	-12.1995	1.3553	-4.3444	-2.0019	-13.4401	-0.0592	0.0182	-0.0073	-0.0462	0.0165	0.9585
3.904	25.9309	686.9991	63.8289	-220.9004	-48.518	661.9424	1.3324	-12.8308	1.0867	-4.6073	-1.7407	-14.1473	-0.0592	0.0182	-0.0073	-0.0462	0.0165	0.9585
3.923	32.7007	654.701	60.093	-211.0852	-42.4925	623.9265	1.1688	-10.3864	0.38519	-3.8026	-0.90024	-11.3884	-0.0592	0.0182	-0.0073	-0.0462	0.0165	0.9585
3.942	39.5348	633.0057	57.2871	-204.678	-37.2897	596.1804	0.61596	-2.8227	-0.93896	-1.2074	0.8035	-2.8775	-0.0592	0.0182	-0.0073	-0.0462	0.0165	0.9585
3.961	46.0103	620.8529	55.5529	-201.2775	-33.164	577.8884	-0.51142	12.2998	-3.0768	4.0459	3.671	14.1205	-0.0592	0.0182	-0.0073	-0.0462	0.0165	0.9585
3.98	51.5734	614.9853	54.8139	-199.7745	-30.232	566.2481	-2.4102	37.5244	-6.1702	12.868	7.9524	42.4643	-0.0592	0.0182	-0.0073	-0.0462	0.0165	0.9585
3.999	55.6084	610.6111	54.7643	-198.5773	-28.4428	557.0849	-5.2477	74.9284	-10.233	26.017	13.7409	84.4939	-0.0592	0.0182	-0.0073	-0.0462	0.0165	0.9585
4.018	57.5379	602.4266	54.9041	-195.956	-27.5738	545.7569	-9.0873	125.1759	-15.0355	43.767	20.8135	140.9595	-0.0592	0.0182	-0.0073	-0.0462	0.0165	0.9585
4.037	57.0061	585.8551	54.6211	-190.4555	-27.2352	528.2127	-13.9762	186.3838	-20.048	65.5039	28.5948	209.7374	-0.0592	0.0182	-0.0073	-0.0462	0.0165	0.9585
4.056	54.1095	558.3393	53.3288	-181.3091	-26.9052	502.0687	-20.3174	254.0581	-24.9636	89.6469	36.8547	285.8055	-0.0592	0.0182	-0.0073	-0.0462	0.0165	0.9585
4.075	49.453	519.9404	50.6903	-168.6106	-26.1025	467.1182	-27.9174	322.5516	-29.7736	114.1572	45.4468	362.8298	-0.0592	0.0182	-0.0073	-0.0462	0.0165	0.9585
4.094	43.9155	472.8193	46.7639	-153.1198	-24.5818	424.9424	-35.9004	387.5452	-34.2816	137.4678	53.7976	435.8599	-0.0592	0.0182	-0.0073	-0.0462	0.0165	0.9585
4.113	38.2959	420.1388	41.9175	-135.895	-22.3752	378.0449	-43.2979	446.4405	-38.2385	158.6381	61.2593	501.835	-0.0592	0.0182	-0.0073	-0.0462	0.0165	0.9585
4.132	33.0905	365.2362	36.5932	-118.028	-19.6688	329.1857	-49.377	497.7754	-41.4855	177.1368	67.3724	559.0018	-0.0592	0.0182	-0.0073	-0.0462	0.0165	0.9585
4.151	28.4823	311.2132	31.1195	-100.5209	-16.655	281.0262	-53.6944	540.9417	-43.9263	192.7413	71.8614	606.6028	-0.0592	0.0182	-0.0073	-0.0462	0.0165	0.9585
4.17	24.4648	260.7597	25.737	-84.2307	-13.5188	235.9472	-56.1125	576.0218	-45.5119	205.4814	74.6226	644.6979	-0.0592	0.0182	-0.0073	-0.0462	0.0165	0.9585
4.189	20.9421	215.9391	20.6697	-69.8008	-10.4683	195.8131	-56.7645	603.6466	-46.2242	215.5836	75.6915	674.0049	-0.0592	0.0182	-0.0073	-0.0462	0.0165	0.9585
4.208	17.8057	177.9212	16.1328	-57.5818	-7.7204	161.6984	-55.9474	624.8288	-46.131	223.401	75.2591	695.6917	-0.0592	0.0182	-0.0073	-0.0462	0.0165	0.9585
4.227	14.9741	146.8291	12.2951	-47.5884	-5.4503	133.7332	-53.9993	640.8413	-45.4188	229.3602	73.6564	711.2193	-0.0592	0.0182	-0.0073	-0.0462	0.0165	0.9585
4.246	12.3815	121.8487	9.252	-39.5393	-3.7642	111.2051	-51.2153	653.069	-44.3725	233.9072	71.3032	722.1613	-0.0592	0.0182	-0.0073	-0.0462	0.0165	0.9585
4.265	9.9719	101.5939	7.0117	-32.9796	-2.6902	92.8878	-47.8399	662.7938	-43.3414	237.436	68.6682	729.9773	-0.0592	0.0182	-0.0073	-0.0462	0.0165	0.9585
4.284	7.7179	84.5471	5.4845	-27.4231	-2.1659	77.4267	-44.0885	671.0279	-42.6855	240.2433	66.2199	735.8419	-0.0592	0.0182	-0.0073	-0.0462	0.0165	0.9585
4.303	5.6222	69.4529	4.4928	-22.4753	-2.0437	63.6978	-40.1499	678.46	-42.6822	242.5341	64.3333	740.5894	-0.0592	0.0182	-0.0073	-0.0462	0.0165	0.9585
4.322	3.7203	55.5466	3.8248	-17.9058	-2.1317	51.0154	-36.1585	685.4785	-43.4278	244.4537	63.1805	744.7249	-0.0592	0.0182	-0.0073	-0.0462	0.0165	0.9585
